<svg width="26" height="24" viewBox="0 0 26 24" fill="none" xmlns="http://www.w3.org/2000/svg">
<g clip-path="url(#clip0_17_1377)">
<path d="M12.75 0.375C19.5732 0.375 25.1016 5.57812 25.1016 12C25.1016 18.4219 19.5732 23.625 12.75 23.625C5.92676 23.625 0.398438 18.4219 0.398438 12C0.398438 5.57812 5.92676 0.375 12.75 0.375ZM12.75 2.625C7.24658 2.625 2.78906 6.82031 2.78906 12C2.78906 17.1797 7.24658 21.375 12.75 21.375C18.2534 21.375 22.7109 17.1797 22.7109 12C22.7109 6.82031 18.2534 2.625 12.75 2.625ZM13.5469 4.875C13.8756 4.875 14.1445 5.12813 14.1445 5.4375V12.0801L17.4717 14.3574C17.7406 14.5402 17.7948 14.8924 17.6006 15.1455L16.665 16.3594C16.4709 16.6077 16.0971 16.6641 15.8281 16.4814L11.5996 13.5889C11.4453 13.4811 11.3556 13.3127 11.3555 13.1348V5.4375C11.3555 5.12813 11.6244 4.875 11.9531 4.875H13.5469Z" fill="currentColor"/>
</g>
<defs>
<clipPath id="clip0_17_1377">
<rect width="25.5" height="24" fill="currentColor"/>
</clipPath>
</defs>
</svg>
