<svg width="17" height="12" viewBox="0 0 17 12" fill="none" xmlns="http://www.w3.org/2000/svg">
<path d="M4.78125 1.49993V3.11243H1.59375C0.713867 3.11243 0 3.78431 0 4.61243V7.38118C0 8.20931 0.713867 8.88118 1.59375 8.88118H4.78125V10.4937C4.78125 11.8249 6.49785 12.4999 7.50059 11.5531L12.2818 7.05618C12.9027 6.4718 12.9027 5.5218 12.2818 4.9343L7.50059 0.434305C6.50117 -0.50007 4.78125 0.165555 4.78125 1.49993ZM11.1562 5.99993L6.375 10.4999V7.3843H1.59375V4.61555H6.375V1.49993L11.1562 5.99993ZM13.8125 11.9999H11.0234C10.8043 11.9999 10.625 11.8312 10.625 11.6249V10.8749C10.625 10.6687 10.8043 10.4999 11.0234 10.4999H13.8125C14.6924 10.4999 15.4062 9.82806 15.4062 8.99993V2.99993C15.4062 2.17181 14.6924 1.49993 13.8125 1.49993H11.0234C10.8043 1.49993 10.625 1.33118 10.625 1.12493V0.37493C10.625 0.16868 10.8043 -6.98647e-05 11.0234 -6.98647e-05H13.8125C15.5723 -6.98647e-05 17 1.34368 17 2.99993V8.99993C17 10.6562 15.5723 11.9999 13.8125 11.9999Z" fill="white"/>
</svg>
