<svg width="24" height="24" viewBox="0 0 24 24" fill="none" xmlns="http://www.w3.org/2000/svg">
<g clip-path="url(#clip0_11_1395)">
<path d="M23.3344 4.59375L19.4016 0.660938C18.9797 0.239063 18.4078 0 17.8125 0H8.25C7.00781 0.0046875 6 1.0125 6 2.25469V12.3797H0.5625C0.253125 12.3797 0 12.6328 0 12.9422V14.0672C0 14.3766 0.253125 14.6297 0.5625 14.6297H13.5V16.9219C13.5 17.4234 14.1094 17.6766 14.4609 17.3203L17.8266 13.9313C18.0609 13.6969 18.0609 13.3219 17.8266 13.0875L14.4609 9.69844C14.1047 9.34219 13.5 9.59062 13.5 10.0969V12.3891H8.25V2.25469H15.75V7.12969C15.75 7.75313 16.2516 8.25469 16.875 8.25469H21.75V21.7547H8.25V16.8797H6V21.75C6 22.9922 7.00781 24 8.25 24H21.7453C22.9875 24 24 22.9922 24 21.75V6.1875C24 5.59219 23.7562 5.01562 23.3344 4.59375ZM17.9953 6.00469V2.4375L21.5625 6.00469H17.9953Z" fill="currentColor"/>
</g>
<defs>
<clipPath id="clip0_11_1395">
<rect width="24" height="24" fill="currentColor"/>
</clipPath>
</defs>
</svg>
