<svg width="27" height="24" viewBox="0 0 27 24" fill="none" xmlns="http://www.w3.org/2000/svg">
<path d="M16.125 5.90625C16.125 5.28281 15.6234 4.78125 15 4.78125C14.3766 4.78125 13.875 5.28281 13.875 5.90625C13.875 6.525 14.3766 7.03125 15 7.03125C15.6234 7.03125 16.125 6.525 16.125 5.90625ZM15 16.5C15.2344 16.5 15.4688 16.4062 15.6328 16.2141C17.2875 14.3391 21.6 9.17813 21.6 6.34219C21.6 2.84063 18.6469 0 15 0C11.3531 0 8.4 2.84063 8.4 6.34219C8.4 9.17344 12.7125 14.3391 14.3672 16.2141C14.5312 16.4062 14.7656 16.5 15 16.5ZM15 2.25C17.4 2.25 19.35 4.0875 19.35 6.34219C19.35 7.34531 17.8594 10.05 15 13.4953C12.1406 10.05 10.65 7.34531 10.65 6.34219C10.65 4.0875 12.6 2.25 15 2.25ZM26.25 7.5C26.1562 7.5 26.0625 7.51875 25.9688 7.55625L22.5234 8.83125C22.1391 9.7875 21.5766 10.8 20.9203 11.8219L24.75 10.4062V19.4531L18.75 21.5391V14.8266C18.1078 15.6375 17.4422 16.4344 16.7578 17.2078C16.6781 17.2969 16.5891 17.3719 16.5 17.4469V21.2625L10.5 19.1437V13.8469C9.65156 12.7172 8.86875 11.5594 8.25 10.4344V18.8812L8.22187 18.8906L2.25 21.0938V12.0469L8.04375 10.0312C7.66875 9.30937 7.38281 8.61094 7.18594 7.94531L0.942188 10.125C0.375 10.35 0 10.9031 0 11.5172V23.25C0 23.6812 0.351562 24 0.75 24C0.84375 24 0.9375 23.9812 1.03125 23.9437L9 21L17.0625 23.8453C17.6719 24.0469 18.3281 24.0516 18.9375 23.8547L26.0578 21.375C26.6297 21.1453 27 20.5969 27 19.9828V8.25C27 7.81875 26.6484 7.5 26.25 7.5Z" fill="white"/>
</svg>
