<svg width="18" height="24" viewBox="0 0 18 24" fill="none" xmlns="http://www.w3.org/2000/svg">
<path d="M9 0C4.02656 0 0 4.03145 0 9.00044C0 12.3334 1.125 13.3741 7.09219 22.9417C7.97344 24.3528 10.0312 24.3528 10.9125 22.9417C16.8797 13.3694 18 12.3334 18 9.00044C18 4.02676 13.9688 0 9 0ZM9 21.7511C3.02812 12.174 2.25 11.5693 2.25 9.00044C2.25 5.27369 5.27344 2.25011 9 2.25011C12.7266 2.25011 15.75 5.27369 15.75 9.00044C15.75 11.5599 15.0375 12.0662 9 21.7511ZM5.25 9.00044C5.25 6.92846 6.92812 5.25026 9 5.25026C11.0719 5.25026 12.75 6.92846 12.75 9.00044C12.75 11.0724 11.0719 12.7506 9 12.7506C6.92812 12.7506 5.25 11.0724 5.25 9.00044Z" fill="white"/>
</svg>
